<?xml version="1.0" encoding="UTF-8"?>
<!DOCTYPE svg PUBLIC "-//W3C//DTD SVG 1.1//EN" "http://www.w3.org/Graphics/SVG/1.1/DTD/svg11.dtd">
<svg xmlns="http://www.w3.org/2000/svg" version="1.1" width="256px" height="256px" style="shape-rendering:geometricPrecision; text-rendering:geometricPrecision; image-rendering:optimizeQuality; fill-rule:evenodd; clip-rule:evenodd" xmlns:xlink="http://www.w3.org/1999/xlink">
<g><path style="opacity:0.955" fill="#050303" d="M 13.5,3.5 C 31.5321,2.37047 38.6988,10.7038 35,28.5C 47.5,41 60,53.5 72.5,66C 76.1141,65.3038 79.7807,64.4704 83.5,63.5C 88.5408,46.1413 99.8742,39.9747 117.5,45C 121.258,46.9229 124.591,49.4229 127.5,52.5C 137.457,42.711 148.791,40.8776 161.5,47C 167.274,51.0532 170.608,56.5532 171.5,63.5C 175.219,64.4704 178.886,65.3038 182.5,66C 195.542,53.2923 208.209,40.2923 220.5,27C 220.265,26.1268 219.931,25.2935 219.5,24.5C 210.167,23.1667 200.833,23.1667 191.5,24.5C 187.207,34.1452 179.874,37.6452 169.5,35C 158.94,28.8666 156.44,20.3666 162,9.5C 167.319,3.83268 173.819,1.99934 181.5,4C 186.365,6.0317 189.698,9.5317 191.5,14.5C 200.833,15.8333 210.167,15.8333 219.5,14.5C 225.256,3.22009 233.922,0.386756 245.5,6C 252.638,13.0096 253.805,20.8429 249,29.5C 247.062,32.1059 244.562,33.9392 241.5,35C 236.449,35.4916 231.449,35.4916 226.5,35C 214,47.5 201.5,60 189,72.5C 189.696,76.1141 190.53,79.7807 191.5,83.5C 200.857,83.8316 210.19,83.4983 219.5,82.5C 225.256,71.2201 233.922,68.3868 245.5,74C 252.069,80.9446 253.236,88.7779 249,97.5C 242.055,104.069 234.222,105.236 225.5,101C 222.639,98.7806 220.639,95.9473 219.5,92.5C 210.19,91.5017 200.857,91.1684 191.5,91.5C 191.579,92.9305 191.246,94.2638 190.5,95.5C 200.289,105.457 202.122,116.791 196,129.5C 193.982,131.35 192.149,133.35 190.5,135.5C 194.4,152.38 188.067,163.047 171.5,167.5C 171.244,169.937 170.577,172.271 169.5,174.5C 175.373,182.09 177.039,190.59 174.5,200C 172.957,203.584 170.79,206.75 168,209.5C 169.515,222.147 164.015,228.147 151.5,227.5C 149.457,246.025 139.124,253.858 120.5,251C 109.198,247.204 103.532,239.371 103.5,227.5C 90.9853,228.147 85.4853,222.147 87,209.5C 79.9419,202.591 77.6086,194.258 80,184.5C 81.1982,180.806 83.0315,177.472 85.5,174.5C 84.4229,172.271 83.7563,169.937 83.5,167.5C 66.9334,163.047 60.6,152.38 64.5,135.5C 54.711,125.543 52.8776,114.209 59,101.5C 61.0176,99.6499 62.8509,97.6499 64.5,95.5C 63.7542,94.2638 63.4208,92.9305 63.5,91.5C 54.1429,91.1684 44.8096,91.5017 35.5,92.5C 33.5,97.8333 29.8333,101.5 24.5,103.5C 23.1667,111.5 23.1667,119.5 24.5,127.5C 34.1452,131.793 37.6452,139.126 35,149.5C 28.8666,160.06 20.3666,162.56 9.5,157C 2.93072,150.055 1.76405,142.222 6,133.5C 8.21937,130.639 11.0527,128.639 14.5,127.5C 15.8333,119.5 15.8333,111.5 14.5,103.5C 3.22009,97.7444 0.386756,89.0777 6,77.5C 11.3189,71.8327 17.8189,69.9993 25.5,72C 30.3648,74.0317 33.6982,77.5317 35.5,82.5C 44.8096,83.4983 54.1429,83.8316 63.5,83.5C 64.4704,79.7807 65.3038,76.1141 66,72.5C 53.5,60 41,47.5 28.5,35C 10.5574,38.7162 2.39074,31.5496 4,13.5C 6.02229,8.98004 9.18896,5.6467 13.5,3.5 Z"/></g>
<g><path style="opacity:1" fill="#529030" d="M 231.5,11.5 C 240.711,10.5418 244.545,14.5418 243,23.5C 238.625,28.3815 233.958,28.7148 229,24.5C 226.458,19.4379 227.292,15.1046 231.5,11.5 Z"/></g>
<g><path style="opacity:1" fill="#e0bf6c" d="M 16.5,11.5 C 24.6577,10.8229 28.1577,14.4895 27,22.5C 24.7742,26.8608 21.2742,28.3608 16.5,27C 12.1392,24.7742 10.6392,21.2742 12,16.5C 13.025,14.313 14.525,12.6464 16.5,11.5 Z"/></g>
<g><path style="opacity:1" fill="#f7d167" d="M 15.5,13.5 C 18.2492,13.2739 20.9159,13.6072 23.5,14.5C 23.4302,17.8015 23.7635,21.1349 24.5,24.5C 22.5165,24.6168 20.8498,23.9501 19.5,22.5C 15.486,25.3216 13.486,24.155 13.5,19C 13.3948,16.8218 14.0615,14.9885 15.5,13.5 Z"/></g>
<g><path style="opacity:1" fill="#e3c06c" d="M 172.5,11.5 C 180.709,10.8724 184.209,14.5391 183,22.5C 180.774,26.8608 177.274,28.3608 172.5,27C 168.139,24.7742 166.639,21.2742 168,16.5C 169.025,14.313 170.525,12.6464 172.5,11.5 Z"/></g>
<g><path style="opacity:1" fill="#f9d267" d="M 171.5,13.5 C 174.448,13.2229 177.281,13.5562 180,14.5C 179.954,17.8004 179.788,21.1337 179.5,24.5C 176.456,23.1924 173.79,23.1924 171.5,24.5C 168.993,20.8495 168.993,17.1829 171.5,13.5 Z"/></g>
<g><path style="opacity:1" fill="#f8dfc9" d="M 144.5,51.5 C 151.099,51.2153 156.599,53.5487 161,58.5C 162.128,60.3453 162.628,62.3453 162.5,64.5C 150.677,67.6546 144.344,75.3212 143.5,87.5C 146.167,87.5 148.833,87.5 151.5,87.5C 153.223,75.2856 160.223,70.119 172.5,72C 181.274,76.0452 184.94,82.8786 183.5,92.5C 180.833,92.1667 178.167,91.8333 175.5,91.5C 175.5,94.1667 175.5,96.8333 175.5,99.5C 184.926,100.426 190.26,105.593 191.5,115C 190.71,124.956 185.376,130.456 175.5,131.5C 175.5,134.167 175.5,136.833 175.5,139.5C 178.146,139.108 180.646,139.108 183,139.5C 184.618,148.764 181.118,155.264 172.5,159C 160.223,160.881 153.223,155.714 151.5,143.5C 148.833,143.5 146.167,143.5 143.5,143.5C 144.444,155.766 150.778,163.432 162.5,166.5C 160.995,174.661 155.995,178.995 147.5,179.5C 139.632,178.983 134.465,174.983 132,167.5C 131.333,155.5 131.333,143.5 132,131.5C 143.396,138.038 153.063,136.038 161,125.5C 162.727,122.382 163.561,119.049 163.5,115.5C 160.833,115.5 158.167,115.5 155.5,115.5C 153.56,125.938 147.56,129.438 137.5,126C 134.865,124.039 133.031,121.539 132,118.5C 131.333,100.167 131.333,81.8333 132,63.5C 134.12,57.2106 138.286,53.2106 144.5,51.5 Z"/></g>
<g><path style="opacity:1" fill="#efb8a1" d="M 104.5,51.5 C 113.066,51.1973 119.232,54.864 123,62.5C 123.667,81.1667 123.667,99.8333 123,118.5C 119.617,126.63 113.784,129.13 105.5,126C 101.568,123.576 99.5675,120.076 99.5,115.5C 96.8333,115.5 94.1667,115.5 91.5,115.5C 92.4633,127.797 99.13,134.463 111.5,135.5C 115.72,135.26 119.554,133.927 123,131.5C 123.667,143.833 123.667,156.167 123,168.5C 115.622,181.134 106.288,182.801 95,173.5C 93.0972,171.559 92.2639,169.226 92.5,166.5C 104.267,163.394 110.601,155.727 111.5,143.5C 108.833,143.5 106.167,143.5 103.5,143.5C 101.779,155.712 94.7789,160.879 82.5,159C 73.7263,154.955 70.0596,148.121 71.5,138.5C 74.1667,138.833 76.8333,139.167 79.5,139.5C 79.5,136.833 79.5,134.167 79.5,131.5C 65.0548,128.612 60.5548,120.279 66,106.5C 69.3597,101.904 73.8597,99.5705 79.5,99.5C 79.5,96.8333 79.5,94.1667 79.5,91.5C 76.7938,91.5751 74.1272,91.9084 71.5,92.5C 70.8129,77.6863 77.8129,70.853 92.5,72C 99.523,74.8464 103.19,80.0131 103.5,87.5C 106.167,87.5 108.833,87.5 111.5,87.5C 110.656,75.3212 104.323,67.6546 92.5,64.5C 93.7482,57.5865 97.7482,53.2532 104.5,51.5 Z"/></g>
<g><path style="opacity:1" fill="#4f8133" d="M 15.5,79.5 C 24.7113,78.5418 28.5446,82.5418 27,91.5C 22.5471,96.2843 17.8804,96.6177 13,92.5C 10.4582,87.4379 11.2915,83.1046 15.5,79.5 Z"/></g>
<g><path style="opacity:1" fill="#ca3e35" d="M 233.5,79.5 C 235.565,79.5172 237.565,79.8505 239.5,80.5C 240.474,82.8195 241.474,85.1529 242.5,87.5C 242.026,90.3113 240.693,92.6446 238.5,94.5C 234.336,96.4241 231.002,95.4241 228.5,91.5C 228.337,89.1432 228.503,86.8098 229,84.5C 230.707,82.9625 232.207,81.2959 233.5,79.5 Z"/></g>
<g><path style="opacity:1" fill="#8d3832" d="M 233.5,79.5 C 232.207,81.2959 230.707,82.9625 229,84.5C 228.503,86.8098 228.337,89.1432 228.5,91.5C 226.049,85.8084 227.715,81.8084 233.5,79.5 Z"/></g>
<g><path style="opacity:1" fill="#569b2a" d="M 17.5,82.5 C 20.1272,83.0916 22.7938,83.4249 25.5,83.5C 26.8376,91.6634 23.5043,94.8301 15.5,93C 10.9189,88.0596 11.5856,84.5596 17.5,82.5 Z"/></g>
<g><path style="opacity:1" fill="#7d2f29" d="M 239.5,80.5 C 243.314,83.1521 244.481,86.8187 243,91.5C 241.871,93.1412 240.371,94.1412 238.5,94.5C 240.693,92.6446 242.026,90.3113 242.5,87.5C 241.474,85.1529 240.474,82.8195 239.5,80.5 Z"/></g>
<g><path style="opacity:1" fill="#b13d38" d="M 22.5,136.5 C 15.104,136 12.4373,139.334 14.5,146.5C 19.4484,149.462 23.1151,148.295 25.5,143C 24.9671,140.774 24.3004,138.607 23.5,136.5C 28.1705,140.201 28.6705,144.534 25,149.5C 15.2758,153.456 10.9425,150.123 12,139.5C 14.8057,135.612 18.3057,134.612 22.5,136.5 Z"/></g>
<g><path style="opacity:1" fill="#ce3f32" d="M 22.5,136.5 C 22.8333,136.5 23.1667,136.5 23.5,136.5C 24.3004,138.607 24.9671,140.774 25.5,143C 23.1151,148.295 19.4484,149.462 14.5,146.5C 12.4373,139.334 15.104,136 22.5,136.5 Z"/></g>
<g><path style="opacity:1" fill="#666666" d="M 126.5,177.5 C 130.817,181.632 135.817,184.799 141.5,187C 149.686,188.549 157.019,186.715 163.5,181.5C 169.022,188.862 168.688,196.029 162.5,203C 139.167,203.667 115.833,203.667 92.5,203C 86.3189,196.068 85.9855,188.902 91.5,181.5C 101.143,188.83 111.143,189.33 121.5,183C 123.373,181.296 125.04,179.463 126.5,177.5 Z"/></g>
<g><path style="opacity:1" fill="#464646" d="M 95.5,211.5 C 116.833,211.5 138.167,211.5 159.5,211.5C 159.945,214.365 159.278,216.865 157.5,219C 137.5,219.667 117.5,219.667 97.5,219C 95.7215,216.865 95.0548,214.365 95.5,211.5 Z"/></g>
<g><path style="opacity:1" fill="#c7c7c7" d="M 111.5,227.5 C 122.167,227.5 132.833,227.5 143.5,227.5C 140.638,241.933 132.305,246.433 118.5,241C 113.904,237.64 111.571,233.14 111.5,227.5 Z"/></g>
</svg>
