<?xml version="1.0" encoding="UTF-8"?>
<!DOCTYPE svg PUBLIC "-//W3C//DTD SVG 1.1//EN" "http://www.w3.org/Graphics/SVG/1.1/DTD/svg11.dtd">
<svg xmlns="http://www.w3.org/2000/svg" version="1.1" width="1200px" height="500px" style="shape-rendering:geometricPrecision; text-rendering:geometricPrecision; image-rendering:optimizeQuality; fill-rule:evenodd; clip-rule:evenodd" xmlns:xlink="http://www.w3.org/1999/xlink">
<g><path style="opacity:0.955" fill="#050303" d="M 792.5,125.5 C 810.532,124.37 817.699,132.704 814,150.5C 826.5,163 839,175.5 851.5,188C 855.114,187.304 858.781,186.47 862.5,185.5C 867.541,168.141 878.874,161.975 896.5,167C 900.258,168.923 903.591,171.423 906.5,174.5C 916.457,164.711 927.791,162.878 940.5,169C 946.274,173.053 949.608,178.553 950.5,185.5C 954.219,186.47 957.886,187.304 961.5,188C 974.542,175.292 987.209,162.292 999.5,149C 999.265,148.127 998.931,147.293 998.5,146.5C 989.167,145.167 979.833,145.167 970.5,146.5C 966.207,156.145 958.874,159.645 948.5,157C 937.94,150.867 935.44,142.367 941,131.5C 946.319,125.833 952.819,123.999 960.5,126C 965.365,128.032 968.698,131.532 970.5,136.5C 979.833,137.833 989.167,137.833 998.5,136.5C 1004.26,125.22 1012.92,122.387 1024.5,128C 1031.64,135.01 1032.8,142.843 1028,151.5C 1026.06,154.106 1023.56,155.939 1020.5,157C 1015.45,157.492 1010.45,157.492 1005.5,157C 993,169.5 980.5,182 968,194.5C 968.696,198.114 969.53,201.781 970.5,205.5C 979.857,205.832 989.19,205.498 998.5,204.5C 1004.26,193.22 1012.92,190.387 1024.5,196C 1031.07,202.945 1032.24,210.778 1028,219.5C 1021.06,226.069 1013.22,227.236 1004.5,223C 1001.64,220.781 999.639,217.947 998.5,214.5C 989.19,213.502 979.857,213.168 970.5,213.5C 970.579,214.93 970.246,216.264 969.5,217.5C 979.289,227.457 981.122,238.791 975,251.5C 972.982,253.35 971.149,255.35 969.5,257.5C 973.4,274.38 967.067,285.047 950.5,289.5C 950.244,291.937 949.577,294.271 948.5,296.5C 954.373,304.09 956.039,312.59 953.5,322C 951.957,325.584 949.79,328.75 947,331.5C 948.515,344.147 943.015,350.147 930.5,349.5C 928.457,368.025 918.124,375.858 899.5,373C 888.198,369.204 882.532,361.371 882.5,349.5C 869.985,350.147 864.485,344.147 866,331.5C 858.942,324.591 856.609,316.258 859,306.5C 860.198,302.806 862.032,299.472 864.5,296.5C 863.423,294.271 862.756,291.937 862.5,289.5C 845.933,285.047 839.6,274.38 843.5,257.5C 833.711,247.543 831.878,236.209 838,223.5C 840.018,221.65 841.851,219.65 843.5,217.5C 842.754,216.264 842.421,214.93 842.5,213.5C 833.143,213.168 823.81,213.502 814.5,214.5C 812.5,219.833 808.833,223.5 803.5,225.5C 802.167,233.5 802.167,241.5 803.5,249.5C 813.145,253.793 816.645,261.126 814,271.5C 807.867,282.06 799.367,284.56 788.5,279C 781.931,272.055 780.764,264.222 785,255.5C 787.219,252.639 790.053,250.639 793.5,249.5C 794.833,241.5 794.833,233.5 793.5,225.5C 782.22,219.744 779.387,211.078 785,199.5C 790.319,193.833 796.819,191.999 804.5,194C 809.365,196.032 812.698,199.532 814.5,204.5C 823.81,205.498 833.143,205.832 842.5,205.5C 843.47,201.781 844.304,198.114 845,194.5C 832.5,182 820,169.5 807.5,157C 789.557,160.716 781.391,153.55 783,135.5C 785.022,130.98 788.189,127.647 792.5,125.5 Z"/></g>
<g><path style="opacity:1" fill="#529030" d="M 1010.5,133.5 C 1019.71,132.542 1023.54,136.542 1022,145.5C 1017.62,150.381 1012.96,150.715 1008,146.5C 1005.46,141.438 1006.29,137.105 1010.5,133.5 Z"/></g>
<g><path style="opacity:1" fill="#e0bf6c" d="M 795.5,133.5 C 803.658,132.823 807.158,136.49 806,144.5C 803.774,148.861 800.274,150.361 795.5,149C 791.139,146.774 789.639,143.274 791,138.5C 792.025,136.313 793.525,134.646 795.5,133.5 Z"/></g>
<g><path style="opacity:1" fill="#f7d167" d="M 794.5,135.5 C 797.249,135.274 799.916,135.607 802.5,136.5C 802.43,139.802 802.764,143.135 803.5,146.5C 801.516,146.617 799.85,145.95 798.5,144.5C 794.486,147.322 792.486,146.155 792.5,141C 792.395,138.822 793.061,136.988 794.5,135.5 Z"/></g>
<g><path style="opacity:1" fill="#e3c06c" d="M 951.5,133.5 C 959.709,132.872 963.209,136.539 962,144.5C 959.774,148.861 956.274,150.361 951.5,149C 947.139,146.774 945.639,143.274 947,138.5C 948.025,136.313 949.525,134.646 951.5,133.5 Z"/></g>
<g><path style="opacity:1" fill="#f9d267" d="M 950.5,135.5 C 953.448,135.223 956.281,135.556 959,136.5C 958.954,139.8 958.788,143.134 958.5,146.5C 955.456,145.192 952.79,145.192 950.5,146.5C 947.993,142.85 947.993,139.183 950.5,135.5 Z"/></g>
<g><path style="opacity:1" fill="#f8dfc9" d="M 923.5,173.5 C 930.099,173.215 935.599,175.549 940,180.5C 941.128,182.345 941.628,184.345 941.5,186.5C 929.677,189.655 923.344,197.321 922.5,209.5C 925.167,209.5 927.833,209.5 930.5,209.5C 932.223,197.286 939.223,192.119 951.5,194C 960.274,198.045 963.94,204.879 962.5,214.5C 959.833,214.167 957.167,213.833 954.5,213.5C 954.5,216.167 954.5,218.833 954.5,221.5C 963.926,222.426 969.26,227.593 970.5,237C 969.71,246.956 964.376,252.456 954.5,253.5C 954.5,256.167 954.5,258.833 954.5,261.5C 957.146,261.108 959.646,261.108 962,261.5C 963.618,270.764 960.118,277.264 951.5,281C 939.223,282.881 932.223,277.714 930.5,265.5C 927.833,265.5 925.167,265.5 922.5,265.5C 923.444,277.766 929.778,285.432 941.5,288.5C 939.995,296.661 934.995,300.995 926.5,301.5C 918.632,300.983 913.465,296.983 911,289.5C 910.333,277.5 910.333,265.5 911,253.5C 922.396,260.038 932.063,258.038 940,247.5C 941.727,244.382 942.561,241.049 942.5,237.5C 939.833,237.5 937.167,237.5 934.5,237.5C 932.56,247.938 926.56,251.438 916.5,248C 913.865,246.039 912.031,243.539 911,240.5C 910.333,222.167 910.333,203.833 911,185.5C 913.12,179.211 917.286,175.211 923.5,173.5 Z"/></g>
<g><path style="opacity:1" fill="#efb8a1" d="M 883.5,173.5 C 892.066,173.197 898.232,176.864 902,184.5C 902.667,203.167 902.667,221.833 902,240.5C 898.617,248.63 892.784,251.13 884.5,248C 880.568,245.576 878.568,242.076 878.5,237.5C 875.833,237.5 873.167,237.5 870.5,237.5C 871.463,249.797 878.13,256.463 890.5,257.5C 894.72,257.26 898.554,255.927 902,253.5C 902.667,265.833 902.667,278.167 902,290.5C 894.622,303.134 885.288,304.801 874,295.5C 872.097,293.559 871.264,291.226 871.5,288.5C 883.267,285.394 889.601,277.727 890.5,265.5C 887.833,265.5 885.167,265.5 882.5,265.5C 880.779,277.712 873.779,282.879 861.5,281C 852.726,276.955 849.06,270.121 850.5,260.5C 853.167,260.833 855.833,261.167 858.5,261.5C 858.5,258.833 858.5,256.167 858.5,253.5C 844.055,250.612 839.555,242.279 845,228.5C 848.36,223.904 852.86,221.571 858.5,221.5C 858.5,218.833 858.5,216.167 858.5,213.5C 855.794,213.575 853.127,213.908 850.5,214.5C 849.813,199.686 856.813,192.853 871.5,194C 878.523,196.846 882.19,202.013 882.5,209.5C 885.167,209.5 887.833,209.5 890.5,209.5C 889.656,197.321 883.323,189.655 871.5,186.5C 872.748,179.587 876.748,175.253 883.5,173.5 Z"/></g>
<g><path style="opacity:0.948" fill="#6690ff" d="M 501.5,192.5 C 508.167,192.5 514.833,192.5 521.5,192.5C 521.333,205.504 521.5,218.504 522,231.5C 532.317,224.049 543.817,221.549 556.5,224C 571.28,227.683 579.447,237.183 581,252.5C 581.5,269.83 581.667,287.163 581.5,304.5C 574.833,304.5 568.167,304.5 561.5,304.5C 561.946,286.444 561.446,268.444 560,250.5C 556.511,243.585 550.844,240.251 543,240.5C 531.917,240.536 524.917,245.869 522,256.5C 521.5,272.497 521.333,288.497 521.5,304.5C 514.833,304.5 508.167,304.5 501.5,304.5C 501.5,267.167 501.5,229.833 501.5,192.5 Z"/></g>
<g><path style="opacity:0.96" fill="#6691ff" d="M 435.5,197.5 C 451.585,196.213 466.252,200.046 479.5,209C 481.684,211.016 483.684,213.183 485.5,215.5C 481.778,220.189 477.445,224.189 472.5,227.5C 455.732,212.908 438.065,211.742 419.5,224C 407.595,236.128 404.428,250.295 410,266.5C 418.267,283.22 431.767,290.387 450.5,288C 459.101,286.533 466.434,282.7 472.5,276.5C 476.948,279.814 481.115,283.48 485,287.5C 485.667,288.167 485.667,288.833 485,289.5C 471.265,302.967 454.765,308.467 435.5,306C 404.411,300.826 388.078,282.493 386.5,251C 389.148,220.523 405.481,202.69 435.5,197.5 Z"/></g>
<g><path style="opacity:0.971" fill="#2d5cd6" d="M 167.5,199.5 C 174.532,199.17 181.532,199.503 188.5,200.5C 196.897,226.193 205.397,251.859 214,277.5C 222.839,251.65 231.672,225.817 240.5,200C 247.082,199.19 253.582,199.357 260,200.5C 268.408,225.891 276.908,251.224 285.5,276.5C 294.57,250.956 303.237,225.289 311.5,199.5C 318.2,199.17 324.866,199.503 331.5,200.5C 319.901,234.796 308.401,269.13 297,303.5C 289.587,304.481 282.087,304.814 274.5,304.5C 266.642,279.425 258.475,254.425 250,229.5C 240.949,253.983 232.283,278.649 224,303.5C 216.558,304.813 209.058,304.813 201.5,303.5C 189.964,268.893 178.631,234.227 167.5,199.5 Z"/></g>
<g><path style="opacity:0.975" fill="#2d5dd5" d="M 346.5,199.5 C 353.167,199.5 359.833,199.5 366.5,199.5C 366.5,234.5 366.5,269.5 366.5,304.5C 359.833,304.5 353.167,304.5 346.5,304.5C 346.5,269.5 346.5,234.5 346.5,199.5 Z"/></g>
<g><path style="opacity:1" fill="#4f8133" d="M 794.5,201.5 C 803.711,200.542 807.545,204.542 806,213.5C 801.547,218.284 796.88,218.618 792,214.5C 789.458,209.438 790.292,205.105 794.5,201.5 Z"/></g>
<g><path style="opacity:1" fill="#ca3e35" d="M 1012.5,201.5 C 1014.56,201.517 1016.56,201.85 1018.5,202.5C 1019.47,204.82 1020.47,207.153 1021.5,209.5C 1021.03,212.311 1019.69,214.645 1017.5,216.5C 1013.34,218.424 1010,217.424 1007.5,213.5C 1007.34,211.143 1007.5,208.81 1008,206.5C 1009.71,204.963 1011.21,203.296 1012.5,201.5 Z"/></g>
<g><path style="opacity:1" fill="#8d3832" d="M 1012.5,201.5 C 1011.21,203.296 1009.71,204.963 1008,206.5C 1007.5,208.81 1007.34,211.143 1007.5,213.5C 1005.05,207.808 1006.72,203.808 1012.5,201.5 Z"/></g>
<g><path style="opacity:0.963" fill="#6691ff" d="M 697.5,206.5 C 704.167,206.5 710.833,206.5 717.5,206.5C 717.5,212.5 717.5,218.5 717.5,224.5C 724.833,224.5 732.167,224.5 739.5,224.5C 739.5,229.833 739.5,235.167 739.5,240.5C 732.167,240.5 724.833,240.5 717.5,240.5C 717.05,255.239 717.55,269.905 719,284.5C 721.202,287.852 724.368,289.519 728.5,289.5C 732.074,289.309 735.407,288.309 738.5,286.5C 740.977,290.757 742.977,295.257 744.5,300C 739.253,304.635 733.087,306.469 726,305.5C 708.775,305.939 699.442,297.606 698,280.5C 697.5,267.171 697.333,253.837 697.5,240.5C 693.167,240.5 688.833,240.5 684.5,240.5C 684.5,235.167 684.5,229.833 684.5,224.5C 688.833,224.5 693.167,224.5 697.5,224.5C 697.5,218.5 697.5,212.5 697.5,206.5 Z"/></g>
<g><path style="opacity:1" fill="#569b2a" d="M 796.5,204.5 C 799.127,205.092 801.794,205.425 804.5,205.5C 805.838,213.663 802.504,216.83 794.5,215C 789.919,210.06 790.586,206.56 796.5,204.5 Z"/></g>
<g><path style="opacity:1" fill="#7d2f29" d="M 1018.5,202.5 C 1022.31,205.152 1023.48,208.819 1022,213.5C 1020.87,215.141 1019.37,216.141 1017.5,216.5C 1019.69,214.645 1021.03,212.311 1021.5,209.5C 1020.47,207.153 1019.47,204.82 1018.5,202.5 Z"/></g>
<g><path style="opacity:0.961" fill="#6691ff" d="M 623.5,223.5 C 632.559,223.154 641.559,223.654 650.5,225C 664.055,229.569 671.222,239.069 672,253.5C 672.5,270.497 672.667,287.497 672.5,304.5C 666.167,304.5 659.833,304.5 653.5,304.5C 653.663,302.143 653.497,299.81 653,297.5C 648.99,301.509 644.157,304.009 638.5,305C 624.847,308.131 613.014,304.964 603,295.5C 593.734,274.866 600.234,262.366 622.5,258C 632.494,257.5 642.494,257.334 652.5,257.5C 652.807,247.644 648.14,241.811 638.5,240C 627.601,238.445 617.768,240.945 609,247.5C 605.272,243.049 602.938,238.049 602,232.5C 608.591,227.907 615.757,224.907 623.5,223.5 Z M 629.5,270.5 C 637.167,270.5 644.833,270.5 652.5,270.5C 653.076,283.84 646.576,290.84 633,291.5C 627.056,291.528 622.389,289.195 619,284.5C 617.73,276.268 621.23,271.602 629.5,270.5 Z"/></g>
<g><path style="opacity:1" fill="#b13d38" d="M 801.5,258.5 C 794.104,258 791.437,261.334 793.5,268.5C 798.448,271.462 802.115,270.295 804.5,265C 803.967,262.774 803.3,260.607 802.5,258.5C 807.171,262.201 807.671,266.534 804,271.5C 794.276,275.456 789.942,272.123 791,261.5C 793.806,257.612 797.306,256.612 801.5,258.5 Z"/></g>
<g><path style="opacity:1" fill="#ce3f32" d="M 801.5,258.5 C 801.833,258.5 802.167,258.5 802.5,258.5C 803.3,260.607 803.967,262.774 804.5,265C 802.115,270.295 798.448,271.462 793.5,268.5C 791.437,261.334 794.104,258 801.5,258.5 Z"/></g>
<g><path style="opacity:1" fill="#666666" d="M 905.5,299.5 C 909.817,303.632 914.817,306.799 920.5,309C 928.686,310.549 936.019,308.715 942.5,303.5C 948.022,310.862 947.688,318.029 941.5,325C 918.167,325.667 894.833,325.667 871.5,325C 865.319,318.068 864.986,310.902 870.5,303.5C 880.143,310.83 890.143,311.33 900.5,305C 902.373,303.296 904.04,301.463 905.5,299.5 Z"/></g>
<g><path style="opacity:1" fill="#464646" d="M 874.5,333.5 C 895.833,333.5 917.167,333.5 938.5,333.5C 938.945,336.365 938.278,338.865 936.5,341C 916.5,341.667 896.5,341.667 876.5,341C 874.722,338.865 874.055,336.365 874.5,333.5 Z"/></g>
<g><path style="opacity:1" fill="#c7c7c7" d="M 890.5,349.5 C 901.167,349.5 911.833,349.5 922.5,349.5C 919.638,363.933 911.305,368.433 897.5,363C 892.904,359.64 890.571,355.14 890.5,349.5 Z"/></g>
</svg>
